# xmcd CD database file
#
# Track frame offsets:
#	150
#	25655
#	46303
#	60463
#	74183
#	84513
#	97755
#	112483
#	133058
#	149735
#	161103
#	172065
#	182808
#	190745
#	219958
#	237853
#	252465
#	266728
#	280498
#
# Disc length: 3925 seconds
#
# Revision: 3
# Processed by: cddbd v1.5.2PL0 Copyright (c) Steve Scherf et al.
# Submitted via: CDex 1.51
#
DISCID=2b0f5313
DTITLE=MAYALL John - Waiting For The Right TIme
DYEAR=1991
DGENRE=Blues
TTITLE0=Waiting For The Right TIme
TTITLE1=They Call It Stormy Monday
TTITLE2=No Reply
TTITLE3=Picture On The Wall
TTITLE4=Life Is Just A Slow Train Crawling Up A Hill
TTITLE5=It Hurts Me Too
TTITLE6=Hideaway
TTITLE7=Luarel Canyon Home
TTITLE8=Ready To Ride
TTITLE9=Steppin' Out
TTITLE10=Man Of Stone
TTITLE11=Night Train (Live)
TTITLE12=Another Man
TTITLE13=Crying
TTITLE14=Red Sky
TTITLE15=Don't Waste My Time
TTITLE16=Ramblin' On My Mind
TTITLE17=Another Kind Of Love
TTITLE18=Hard Road
EXTD=YEAR: 1991
EXTT0=
EXTT1=
EXTT2=
EXTT3=
EXTT4=
EXTT5=
EXTT6=
EXTT7=
EXTT8=
EXTT9=
EXTT10=
EXTT11=
EXTT12=
EXTT13=
EXTT14=
EXTT15=
EXTT16=
EXTT17=
EXTT18=
PLAYORDER=
